<svg xmlns="http://www.w3.org/2000/svg" xmlns:xlink="http://www.w3.org/1999/xlink" id="Ebene_1" x="0px" y="0px" viewBox="0 0 213 100" style="enable-background:new 0 0 213 100;" xml:space="preserve"> <style type="text/css"> .st0{fill:none;stroke:#181716;stroke-width:2.7649;stroke-miterlimit:10;} .st1{fill:none;} .st2{fill:#F29000;} .st3{fill:#181716;} .st4{fill:#F29000;stroke:#F29000;stroke-width:0.1975;stroke-miterlimit:10;} </style> <g> <path id="Rahmen" class="st0" d="M191.67,87.66h17.75V3.67H24.87c-11.76,0-21.29,9.53-21.29,21.29v62.69h17.75"></path> <g> <rect x="21.18" y="80.56" class="st1" width="170.65" height="15.77"></rect> <path class="st2" d="M25.66,81.29h2.09l1.85,7.94h0.03l1.69-7.94h2.7l1.75,7.94h0.03l1.86-7.94h1.93l-2.59,9.93h-2.56l-1.79-7.94 h-0.03l-1.76,7.94h-2.57L25.66,81.29z"></path> <path class="st2" d="M40.76,80.74h1.91v1.82h-1.91V80.74z M40.76,83.9h1.91v7.32h-1.91V83.9z"></path> <path class="st2" d="M44.72,83.9h1.69v1.66h0.03c0.09-0.68,0.87-1.83,2.01-1.83c0.18,0,0.38,0,0.58,0.06v1.92 c-0.17-0.1-0.51-0.16-0.85-0.16c-1.55,0-1.55,1.93-1.55,2.99v2.69h-1.91V83.9z"></path> <path class="st2" d="M54.16,80.55h1.91v4.28h0.03c0.53-0.7,1.19-1.11,2.19-1.11c2.25,0,3.07,1.79,3.07,3.81 c0,2.01-0.82,3.85-3.07,3.85c-0.81,0-1.69-0.28-2.25-1.07h-0.03v0.9h-1.85V80.55z M57.76,89.91c1.25,0,1.61-1.37,1.61-2.38 c0-0.98-0.34-2.33-1.58-2.33c-1.22,0-1.71,1.31-1.71,2.33C56.08,88.58,56.49,89.91,57.76,89.91z"></path> <path class="st2" d="M68.72,90.81c-0.7,0.38-1.49,0.58-2.52,0.58c-2.42,0-3.83-1.39-3.83-3.8c0-2.12,1.12-3.87,3.4-3.87 c2.72,0,3.48,1.86,3.48,4.42H64.2c0.08,1.18,0.91,1.85,2.09,1.85c0.92,0,1.72-0.34,2.43-0.74V90.81z M67.44,86.84 c-0.06-0.92-0.48-1.72-1.55-1.72c-1.07,0-1.61,0.74-1.69,1.72H67.44z"></path> <path class="st2" d="M69.93,83.9h2.02l1.62,5.42h0.03l1.48-5.42h2.22l1.59,5.42h0.03l1.52-5.42h1.82l-2.25,7.32h-2.25l-1.59-5.59 h-0.03l-1.56,5.59H72.4L69.93,83.9z"></path> <path class="st2" d="M89.27,90.81c-0.7,0.38-1.49,0.58-2.52,0.58c-2.42,0-3.83-1.39-3.83-3.8c0-2.12,1.12-3.87,3.4-3.87 c2.72,0,3.48,1.86,3.48,4.42h-5.06c0.09,1.18,0.91,1.85,2.09,1.85c0.92,0,1.72-0.34,2.43-0.74V90.81z M87.99,86.84 c-0.06-0.92-0.48-1.72-1.55-1.72c-1.07,0-1.61,0.74-1.69,1.72H87.99z"></path> <path class="st2" d="M98.03,83.9v6.61c0,1.99-0.8,3.87-3.87,3.87c-0.75,0-1.62-0.11-2.53-0.5l0.16-1.62 c0.58,0.31,1.54,0.64,2.13,0.64c2.1,0,2.2-1.58,2.2-2.84h-0.03c-0.36,0.63-1.21,1.17-2.28,1.17c-2.16,0-2.99-1.74-2.99-3.7 c0-1.76,0.91-3.8,3.1-3.8c0.97,0,1.72,0.33,2.25,1.17h0.03v-1H98.03z M96.12,87.48c0-1.25-0.48-2.28-1.59-2.28 c-1.29,0-1.71,1.19-1.71,2.32c0,1,0.53,2.22,1.62,2.22C95.64,89.74,96.12,88.7,96.12,87.48z"></path> <path class="st2" d="M105.86,90.81c-0.7,0.38-1.49,0.58-2.52,0.58c-2.42,0-3.83-1.39-3.83-3.8c0-2.12,1.12-3.87,3.4-3.87 c2.72,0,3.48,1.86,3.48,4.42h-5.06c0.08,1.18,0.91,1.85,2.09,1.85c0.92,0,1.72-0.34,2.43-0.74V90.81z M104.58,86.84 c-0.06-0.92-0.48-1.72-1.55-1.72c-1.07,0-1.61,0.74-1.69,1.72H104.58z"></path> <path class="st2" d="M107.89,83.9h1.81v1h0.03c0.6-0.84,1.41-1.17,2.4-1.17c1.73,0,2.49,1.22,2.49,2.87v4.62h-1.91v-3.91 c0-0.9-0.01-2.1-1.24-2.1c-1.38,0-1.68,1.49-1.68,2.43v3.58h-1.91V83.9z"></path> <path class="st2" d="M120.71,81.29h3.19l2.36,7.52h0.03l2.36-7.52h3.19v9.93h-1.91v-8.19h-0.03l-2.67,8.19h-1.91l-2.67-8.19 l-0.03,0.03v8.16h-1.91V81.29z"></path> <path class="st2" d="M139.83,90.81c-0.7,0.38-1.49,0.58-2.52,0.58c-2.42,0-3.83-1.39-3.83-3.8c0-2.12,1.12-3.87,3.4-3.87 c2.72,0,3.48,1.86,3.48,4.42h-5.06c0.09,1.18,0.91,1.85,2.09,1.85c0.92,0,1.72-0.34,2.43-0.74V90.81z M138.55,86.84 c-0.06-0.92-0.48-1.72-1.55-1.72s-1.61,0.74-1.69,1.72H138.55z"></path> <path class="st2" d="M141.87,83.9h1.81v1h0.03c0.6-0.84,1.41-1.17,2.4-1.17c1.74,0,2.49,1.22,2.49,2.87v4.62h-1.91v-3.91 c0-0.9-0.01-2.1-1.24-2.1c-1.38,0-1.68,1.49-1.68,2.43v3.58h-1.91V83.9z"></path> <path class="st2" d="M154.91,85.43c-0.58-0.2-1.01-0.31-1.71-0.31c-0.51,0-1.12,0.18-1.12,0.81c0,1.17,3.31,0.43,3.31,3.07 c0,1.71-1.52,2.39-3.07,2.39c-0.73,0-1.46-0.13-2.16-0.31l0.11-1.56c0.6,0.3,1.22,0.48,1.88,0.48c0.48,0,1.25-0.19,1.25-0.9 c0-1.44-3.31-0.46-3.31-3.1c0-1.58,1.38-2.28,2.87-2.28c0.9,0,1.48,0.14,2.08,0.27L154.91,85.43z"></path> <path class="st2" d="M161.62,85.48c-0.34-0.16-0.71-0.27-1.29-0.27c-1.18,0-1.93,0.94-1.93,2.32c0,1.35,0.64,2.39,1.98,2.39 c0.54,0,1.14-0.2,1.46-0.34l0.08,1.58c-0.55,0.17-1.12,0.24-1.91,0.24c-2.4,0-3.61-1.64-3.61-3.87c0-2.12,1.25-3.8,3.54-3.8 c0.77,0,1.32,0.08,1.85,0.24L161.62,85.48z"></path> <path class="st2" d="M163.18,80.55h1.91v4.34h0.03c0.48-0.71,1.31-1.17,2.3-1.17c1.74,0,2.49,1.22,2.49,2.87v4.62H168v-3.91 c0-0.9-0.01-2.1-1.24-2.1c-1.38,0-1.68,1.49-1.68,2.43v3.58h-1.91V80.55z"></path> <path class="st2" d="M177.74,90.81c-0.7,0.38-1.49,0.58-2.52,0.58c-2.42,0-3.83-1.39-3.83-3.8c0-2.12,1.12-3.87,3.4-3.87 c2.72,0,3.48,1.86,3.48,4.42h-5.06c0.09,1.18,0.91,1.85,2.09,1.85c0.92,0,1.72-0.34,2.43-0.74V90.81z M176.46,86.84 c-0.06-0.92-0.48-1.72-1.55-1.72s-1.61,0.74-1.69,1.72H176.46z"></path> <path class="st2" d="M179.78,83.9h1.81v1h0.03c0.6-0.84,1.41-1.17,2.4-1.17c1.74,0,2.49,1.22,2.49,2.87v4.62h-1.91v-3.91 c0-0.9-0.01-2.1-1.24-2.1c-1.38,0-1.68,1.49-1.68,2.43v3.58h-1.91V83.9z"></path> </g> <g> <g> <rect x="18.01" y="25.8" class="st1" width="169.53" height="39.73"></rect> <path class="st3" d="M25.64,51.28c0,4.53,2.43,6.21,6.83,6.21c2.63,0,5.15-0.67,7.54-1.77l-0.81,5.06 c-2.48,0.76-5.2,1.38-7.83,1.38c-7.06,0-11.84-3.44-11.84-10.74c0-7.64,5.92-14.99,13.98-14.99c6.06,0,10.07,3.1,10.07,9.35 c0,1.86-0.24,3.68-0.62,5.49H25.64z M37.34,46.89c0.1-0.57,0.14-1.1,0.14-1.67c0-2.63-1.38-4.1-4.06-4.1 c-3.96,0-5.68,2.39-6.92,5.77H37.34z"></path> <path class="st3" d="M52.03,41.69h-4.96l1-4.68h4.96c1.29-6.25,3.39-11.79,10.83-11.79c1.48,0,2.91,0.29,3.96,0.62l-1.48,4.77 c-0.57-0.29-1.29-0.43-1.96-0.43c-3.53,0-4.34,4.25-4.96,6.83h5.73l-1,4.68h-5.73l-4.2,19.9h-6.4L52.03,41.69z"></path> <path class="st3" d="M69.74,41.69h-4.96l1-4.68h4.96c1.29-6.25,3.39-11.79,10.83-11.79c1.48,0,2.91,0.29,3.96,0.62l-1.48,4.77 c-0.57-0.29-1.29-0.43-1.96-0.43c-3.53,0-4.34,4.25-4.96,6.83h5.73l-1,4.68h-5.73l-4.2,19.9h-6.4L69.74,41.69z"></path> <path class="st3" d="M88.45,51.28c0,4.53,2.43,6.21,6.83,6.21c2.63,0,5.15-0.67,7.54-1.77L102,60.78 c-2.48,0.76-5.2,1.38-7.83,1.38c-7.06,0-11.84-3.44-11.84-10.74c0-7.64,5.92-14.99,13.98-14.99c6.06,0,10.07,3.1,10.07,9.35 c0,1.86-0.24,3.68-0.62,5.49H88.45z M100.14,46.89c0.1-0.57,0.14-1.1,0.14-1.67c0-2.63-1.38-4.1-4.06-4.1 c-3.96,0-5.68,2.39-6.92,5.77H100.14z"></path> <path class="st3" d="M128.63,42.65c-1.24-0.81-2.91-1.24-4.68-1.24c-5.11,0-7.97,4.77-7.97,9.4c0,3.2,1.05,6.4,5.44,6.4 c1.58,0,3.53-0.43,5.2-1.24l-0.72,5.06c-1.96,0.95-4.06,1.14-6.16,1.14c-6.35,0-10.45-4.25-10.45-10.6 c0-8.59,5.68-15.13,14.51-15.13c2.39,0,4.68,0.43,6.4,0.95L128.63,42.65z"></path> <path class="st3" d="M132.07,37.01h4.63l1.1-5.06l6.87-2.24l-1.58,7.3h5.73l-1,4.68h-5.73l-2.34,10.74 c-0.14,0.57-0.29,1.43-0.29,2.39c0,1.48,1,2.39,2.43,2.39c1.15,0,2.29-0.24,3.1-0.57l-1.1,4.96c-1.1,0.24-2.34,0.57-3.44,0.57 c-4.34,0-7.4-1.72-7.4-6.44c0-1.91,0.38-3.77,0.81-5.73l1.81-8.3h-4.63L132.07,37.01z"></path> <path class="st3" d="M153.35,37.01h6.4l-5.25,24.58h-6.4L153.35,37.01z M155.69,26.42h6.4l-1.34,6.11h-6.4L155.69,26.42z"></path> <path class="st3" d="M163.51,37.01h6.54l2.48,18.04h0.1l9.69-18.04h6.78l-14.37,24.58h-7.06L163.51,37.01z"></path> </g> <polygon class="st4" points="155.69,26.42 162.08,26.42 160.74,32.53 154.35,32.53 "></polygon> <path class="st3" d="M192.44,42.13c1.41,0,2.55-1.15,2.55-2.55c0-1.41-1.15-2.55-2.55-2.55c-1.41,0-2.56,1.15-2.56,2.55 C189.88,40.98,191.03,42.13,192.44,42.13L192.44,42.13z M192.44,41.63c-1.07,0-1.93-0.86-1.93-2.06c0-1.2,0.86-2.06,1.93-2.06 c1.07,0,1.93,0.86,1.93,2.06C194.37,40.77,193.51,41.63,192.44,41.63L192.44,41.63z M191.46,41.01h0.54v-1.25h0.33l0.75,1.25h0.55 l-0.78-1.27c0.47-0.04,0.76-0.28,0.76-0.78c0-0.61-0.38-0.85-1.07-0.85h-1.08V41.01L191.46,41.01z M191.99,38.52h0.48 c0.28,0,0.59,0.06,0.59,0.4c0,0.39-0.28,0.43-0.59,0.43h-0.48V38.52L191.99,38.52z"></path> </g> </g> <g> </g> <g> </g> <g> </g> <g> </g> <g> </g> <g> </g> </svg>